<mxfile host="app.diagrams.net" modified="2023-11-03T02:15:59.301Z" agent="Mozilla/5.0 (Windows NT 10.0; Win64; x64) AppleWebKit/537.36 (KHTML, like Gecko) Chrome/118.0.0.0 Safari/537.36 Edg/118.0.2088.76" etag="T86ole97KSuG772TxlcU" version="22.0.8" type="github">
  <diagram name="Page-1" id="Egez_PM554WTkxffpwGR">
    <mxGraphModel dx="1220" dy="583" grid="1" gridSize="10" guides="1" tooltips="1" connect="1" arrows="1" fold="1" page="1" pageScale="1" pageWidth="850" pageHeight="1100" math="0" shadow="0">
      <root>
        <mxCell id="0" />
        <mxCell id="1" parent="0" />
      </root>
    </mxGraphModel>
  </diagram>
</mxfile>
